<svg width="80" height="80" viewBox="0 0 80 80" fill="none" xmlns="http://www.w3.org/2000/svg">
<rect width="80" height="80" rx="12" fill="url(#paint0_linear_2188_555)"/>
<path d="M55.0786 68.4513C52.3467 68.4513 49.8032 68.0534 47.4482 67.2574C45.0931 66.4615 43.2326 65.3846 41.8666 64.0269V20.1333C41.8666 19.1033 41.3956 18.5883 40.4536 18.5883H37.3448L36.709 16.7623C38.0749 15.545 39.6293 14.5384 41.372 13.7424C43.1619 12.9465 44.7163 12.5485 46.0351 12.5485C46.6945 12.5485 47.2362 12.7592 47.6601 13.1806C48.084 13.602 48.296 14.1404 48.296 14.7959V62.2711C49.3793 63.0203 50.5098 63.5821 51.6873 63.9566C52.8649 64.3312 54.2073 64.5185 55.7145 64.5185C58.8703 64.5185 61.3667 63.2075 63.2037 60.5856C65.0407 57.9637 65.9591 54.4522 65.9591 50.0512C65.9591 47.1952 65.5352 44.6903 64.6874 42.5366C63.8867 40.3361 62.7562 38.6271 61.2961 37.4098C59.8359 36.1925 58.1403 35.5839 56.2091 35.5839C54.7489 35.5839 53.7127 35.7477 53.1004 36.0755C52.5351 36.3564 52.0641 36.4968 51.6873 36.4968C51.4047 36.4968 51.1456 36.333 50.9101 36.0052C50.7217 35.6775 50.6275 35.3263 50.6275 34.9518C50.6275 34.3899 50.8395 33.9686 51.2634 33.6876C52.4409 32.9385 53.6185 32.4235 54.796 32.1426C56.0207 31.8149 57.2218 31.651 58.3993 31.651C61.3667 31.651 63.9809 32.3767 66.2418 33.8281C68.5026 35.2795 70.269 37.2928 71.5407 39.8679C72.8124 42.3961 73.4483 45.3224 73.4483 48.6466C73.4483 52.439 72.6476 55.8334 71.0461 58.8299C69.4447 61.7795 67.2544 64.1205 64.4754 65.8528C61.7435 67.5852 58.6113 68.4513 55.0786 68.4513Z" fill="#F8FCFB"/>
<path d="M26.1221 68.4513C23.3902 68.4513 20.8467 68.0534 18.4917 67.2574C16.1366 66.4615 14.2761 65.3846 12.9101 64.0269V20.1333C12.9101 19.1033 12.4391 18.5883 11.497 18.5883H8.38834L7.75246 16.7623C9.11841 15.545 10.6728 14.5384 12.4155 13.7424C14.2054 12.9465 15.7598 12.5485 17.0786 12.5485C17.738 12.5485 18.2797 12.7592 18.7036 13.1806C19.1275 13.602 19.3395 14.1404 19.3395 14.7959V62.2711C20.4228 63.0202 21.5533 63.5821 22.7308 63.9566C23.9084 64.3312 25.2508 64.5185 26.758 64.5185C29.9138 64.5185 32.4102 63.2075 34.2472 60.5856C36.0842 57.9637 37.0026 54.4522 37.0026 50.0512C37.0026 47.1952 36.5787 44.6903 35.7309 42.5366C34.9302 40.3361 33.7997 38.6271 32.3396 37.4098C30.8794 36.1925 29.1837 35.5839 27.2526 35.5839C25.7924 35.5839 24.7562 35.7477 24.1439 36.0755C23.5786 36.3564 23.1076 36.4968 22.7308 36.4968C22.4482 36.4968 22.1891 36.333 21.9536 36.0052C21.7652 35.6775 21.671 35.3263 21.671 34.9518C21.671 34.3899 21.883 33.9686 22.3069 33.6876C23.4844 32.9385 24.662 32.4235 25.8395 32.1426C27.0642 31.8149 28.2653 31.651 29.4428 31.651C32.4102 31.651 35.0244 32.3767 37.2852 33.8281C39.5461 35.2795 41.3124 37.2928 42.5842 39.8679C43.8559 42.3961 44.4918 45.3224 44.4918 48.6466C44.4918 52.439 43.6911 55.8334 42.0896 58.8299C40.4882 61.7795 38.2979 64.1205 35.5189 65.8528C32.787 67.5852 29.6548 68.4513 26.1221 68.4513Z" fill="#F8FCFB"/>
<path d="M35.0999 67.4606C35.1275 67.4606 35.1519 67.4675 35.1732 67.481C35.1949 67.4945 35.2119 67.5126 35.2244 67.5356C35.2369 67.559 35.2432 67.5854 35.2433 67.6149C35.2433 67.6409 35.2381 67.6638 35.2282 67.6835C35.2183 67.7035 35.2048 67.7193 35.1872 67.7307C35.1695 67.742 35.1489 67.7478 35.1258 67.7478C35.1166 67.7478 35.1073 67.7466 35.0977 67.7441C35.0886 67.7419 35.0794 67.738 35.0702 67.7323C35.0669 67.7301 35.0649 67.7265 35.0649 67.7221C35.0649 67.7193 35.0656 67.7165 35.067 67.7141C35.0688 67.7115 35.0713 67.7103 35.0735 67.7103C35.0764 67.7103 35.0799 67.7114 35.0843 67.7135C35.089 67.7161 35.0972 67.7173 35.1085 67.7173C35.1236 67.7173 35.137 67.7123 35.1484 67.7028C35.1597 67.6933 35.1686 67.6802 35.1748 67.6632C35.1814 67.6463 35.1851 67.6265 35.1851 67.6042C35.1851 67.5698 35.1778 67.5422 35.1635 67.5217C35.1491 67.5012 35.1294 67.4912 35.1047 67.4912C35.0931 67.4912 35.0826 67.4926 35.0735 67.4954C35.0643 67.4984 35.0555 67.503 35.0471 67.5088V67.8796C35.0471 67.8847 35.045 67.8892 35.0417 67.8925C35.0384 67.8956 35.0343 67.8973 35.0293 67.8973C35.019 67.8973 35.0066 67.8939 34.9926 67.8877C34.9791 67.8815 34.9671 67.8735 34.9565 67.8641L34.9614 67.8502H34.9856C34.9929 67.8501 34.9964 67.8459 34.9964 67.8378V67.4949C35.007 67.4843 35.0217 67.4759 35.0401 67.4697C35.0585 67.4635 35.0785 67.4606 35.0999 67.4606ZM47.7441 14.7959C47.7441 14.2699 47.5793 13.876 47.2697 13.5683C46.9602 13.2607 46.5638 13.0973 46.0348 13.0973C44.822 13.0974 43.3478 13.4651 41.5974 14.2434L41.5969 14.2429C40.0204 14.9634 38.6064 15.86 37.352 16.9311L37.7379 18.0396H40.4536C41.0239 18.0397 41.5487 18.198 41.9214 18.6055C42.285 19.003 42.4183 19.5458 42.4184 20.1331V63.7935C43.6954 65.0057 45.422 65.9931 47.6255 66.7378C49.918 67.5126 52.4014 67.9027 55.0787 67.9027C58.5159 67.9026 61.543 67.0612 64.1782 65.3902L64.182 65.3881C66.8778 63.7076 69.0029 61.438 70.5604 58.5694C72.1136 55.662 72.896 52.3587 72.8961 48.6467C72.8961 45.3928 72.2738 42.5532 71.0466 40.1134L71.045 40.1097C69.8141 37.6172 68.1126 35.6826 65.9419 34.2892C63.7794 32.9009 61.2716 32.1995 58.3992 32.1995C57.2737 32.1995 56.1206 32.3564 54.9391 32.6726L54.9321 32.6742L54.9246 32.6764C53.8169 32.9406 52.6972 33.4272 51.5653 34.1466C51.3162 34.3132 51.1793 34.5521 51.1793 34.952C51.1794 35.2202 51.2435 35.4689 51.3745 35.7064C51.5455 35.9366 51.6526 35.948 51.6871 35.948C51.9389 35.948 52.3196 35.8501 52.8536 35.5847C53.5959 35.1935 54.747 35.035 56.2091 35.035C58.268 35.035 60.0897 35.6883 61.6507 36.9896C63.1979 38.2796 64.3755 40.0727 65.2013 42.3365L65.3609 42.7587C66.1318 44.8901 66.5112 47.324 66.5112 50.0511C66.5112 54.5231 65.578 58.1563 63.6564 60.8991C61.7185 63.665 59.0546 65.0672 55.7143 65.0672C54.162 65.0671 52.7612 64.8745 51.5189 64.4794C50.2856 64.0871 49.1061 63.4996 47.9807 62.7214L47.7441 62.558V14.7959ZM48.848 61.9782C49.8165 62.6185 50.8179 63.104 51.8553 63.434C52.968 63.788 54.2521 63.9698 55.7143 63.9698C58.6855 63.9698 61.0148 62.7501 62.7508 60.2722C64.5031 57.7711 65.4072 54.3812 65.4072 50.0511C65.4072 47.2481 64.9909 44.8136 64.1734 42.7367L64.1707 42.7298L64.168 42.7233C63.3926 40.5926 62.3112 38.9724 60.9413 37.8303C59.582 36.6971 58.0124 36.1324 56.2091 36.1323C54.7608 36.1323 53.8448 36.2999 53.3619 36.5583L53.3544 36.5626L53.3468 36.5664C52.7505 36.8627 52.1889 37.0454 51.6871 37.0454C51.1574 37.0453 50.7521 36.7295 50.4608 36.3242L50.4446 36.3017L50.4306 36.2775C50.195 35.8676 50.0754 35.4227 50.0754 34.952C50.0754 34.2303 50.361 33.6261 50.9573 33.2309L50.9659 33.2256C52.1873 32.4485 53.4211 31.9063 54.6669 31.609C55.9298 31.2723 57.1743 31.1022 58.3992 31.1022C61.4614 31.1022 64.1817 31.8526 66.5408 33.367C68.8919 34.8763 70.7237 36.9681 72.0363 39.6258C73.3514 42.2418 74 45.2537 74 48.6467C74 52.5181 73.182 56.0029 71.5334 59.0875L71.5318 59.0902C69.887 62.1197 67.6322 64.5311 64.7717 66.3151C61.9433 68.1086 58.7065 69 55.0787 69C52.2923 69 49.6879 68.5938 47.2703 67.7767C44.8575 66.9613 42.9165 65.8468 41.4762 64.4151L41.3144 64.2543V20.1331C41.3144 19.6907 41.2121 19.4612 41.1048 19.3438C41.0065 19.2363 40.8251 19.137 40.4536 19.137H36.9515L36.0675 16.5972L36.3402 16.354C37.7492 15.0983 39.3507 14.0615 41.1414 13.2436L41.1463 13.2415C42.9755 12.428 44.6099 12 46.0348 12C46.8245 12 47.512 12.2575 48.0502 12.7925C48.5885 13.3275 48.848 14.0108 48.848 14.7959V61.9782Z" fill="#F8FCFB"/>
<path d="M6.14338 67.4606C6.17095 67.4606 6.19537 67.4675 6.21669 67.481C6.23835 67.4945 6.25541 67.5126 6.2679 67.5356C6.28038 67.559 6.28673 67.5854 6.28677 67.6149C6.28677 67.6409 6.28158 67.6638 6.27167 67.6835C6.26179 67.7035 6.24825 67.7193 6.23071 67.7307C6.21305 67.742 6.19243 67.7478 6.16926 67.7478C6.1601 67.7478 6.15075 67.7466 6.14123 67.7441C6.13212 67.7419 6.12284 67.738 6.11374 67.7323C6.11042 67.7301 6.10835 67.7265 6.10835 67.7221C6.10836 67.7193 6.10911 67.7165 6.1105 67.7141C6.11234 67.7115 6.11476 67.7103 6.11697 67.7103C6.11988 67.7103 6.12343 67.7114 6.12775 67.7135C6.13252 67.7161 6.14066 67.7173 6.15201 67.7173C6.1671 67.7173 6.18049 67.7123 6.1919 67.7028C6.20321 67.6933 6.21208 67.6802 6.21831 67.6632C6.22493 67.6463 6.22855 67.6265 6.22855 67.6042C6.22855 67.5698 6.22134 67.5422 6.20699 67.5217C6.19264 67.5012 6.17288 67.4912 6.14824 67.4912C6.13655 67.4912 6.12612 67.4926 6.11697 67.4954C6.10781 67.4984 6.09899 67.503 6.09056 67.5088V67.8796C6.09056 67.8847 6.08848 67.8892 6.08517 67.8925C6.08191 67.8956 6.07776 67.8973 6.07277 67.8973C6.06247 67.8973 6.0501 67.8939 6.03612 67.8877C6.02258 67.8815 6.01062 67.8735 6 67.8641L6.00485 67.8502H6.02911C6.03642 67.8501 6.03989 67.8459 6.03989 67.8378V67.4949C6.05054 67.4843 6.0652 67.4759 6.08355 67.4697C6.10195 67.4635 6.12204 67.4606 6.14338 67.4606ZM18.7876 14.7959C18.7876 14.2699 18.6228 13.876 18.3132 13.5683C18.0037 13.2607 17.6073 13.0973 17.0783 13.0973C15.8655 13.0974 14.3913 13.4651 12.6409 14.2434L12.6404 14.2429C11.0637 14.9635 9.64946 15.8603 8.39494 16.9316L8.78089 18.0396H11.4971C12.0673 18.0397 12.5922 18.198 12.9649 18.6055C13.3285 19.003 13.4618 19.5458 13.4619 20.1331V63.7935C14.7389 65.0057 16.4655 65.9931 18.669 66.7378C20.9615 67.5126 23.4449 67.9027 26.1222 67.9027C29.5594 67.9026 32.5865 67.0612 35.2217 65.3902L35.2255 65.3881C37.9202 63.7083 40.0445 61.4396 41.6017 58.5726L41.7457 58.2988C43.2047 55.4575 43.9395 52.244 43.9395 48.6467C43.9395 45.3928 43.3173 42.5532 42.0901 40.1134L42.0885 40.1097C40.8576 37.6172 39.1561 35.6826 36.9854 34.2892C34.8229 32.9009 32.3151 32.1995 29.4427 32.1995C28.3172 32.1995 27.1641 32.3564 25.9826 32.6726L25.9756 32.6742L25.9681 32.6764C24.8604 32.9406 23.7407 33.4272 22.6088 34.1466C22.3597 34.3132 22.2228 34.5521 22.2228 34.952C22.2229 35.2202 22.287 35.4689 22.418 35.7064C22.589 35.9367 22.6961 35.948 22.7306 35.948C22.9824 35.948 23.3631 35.8501 23.8971 35.5847C24.6394 35.1935 25.7905 35.035 27.2526 35.035C29.3115 35.035 31.1332 35.6883 32.6942 36.9896C34.2414 38.2796 35.419 40.0727 36.2448 42.3365L36.4044 42.7587C37.1753 44.8901 37.5547 47.324 37.5547 50.0511C37.5547 54.5231 36.6215 58.1563 34.6999 60.8991C32.762 63.665 30.0981 65.0672 26.7578 65.0672C25.2055 65.0671 23.8047 64.8745 22.5624 64.4794C21.3291 64.0871 20.1496 63.4996 19.0242 62.7214L18.7876 62.558V14.7959ZM19.8915 61.9782C20.86 62.6185 21.8614 63.104 22.8988 63.434C24.0115 63.788 25.2956 63.9698 26.7578 63.9698C29.7289 63.9698 32.0578 62.7499 33.7938 60.2722C35.5461 57.7711 36.4507 54.3812 36.4507 50.0511C36.4507 47.2481 36.0344 44.8136 35.2169 42.7367L35.2142 42.7298L35.2115 42.7233C34.4361 40.5926 33.3547 38.9724 31.9848 37.8303C30.6255 36.6971 29.0559 36.1324 27.2526 36.1323C25.8043 36.1323 24.8883 36.2999 24.4054 36.5583L24.3979 36.5626L24.3903 36.5664C23.7939 36.8627 23.2324 37.0454 22.7306 37.0454C22.2009 37.0454 21.7956 36.7295 21.5043 36.3242L21.4881 36.3017L21.4741 36.2775C21.2385 35.8676 21.1189 35.4227 21.1189 34.952C21.1189 34.2303 21.4045 33.6261 22.0008 33.2309L22.0094 33.2256C23.2308 32.4485 24.4646 31.9062 25.7104 31.609C26.9733 31.2723 28.2178 31.1022 29.4427 31.1022C32.5049 31.1022 35.2252 31.8526 37.5843 33.367C39.9354 34.8764 41.7672 36.9681 43.0798 39.6258C44.3949 42.2418 45.0435 45.2537 45.0435 48.6467C45.0435 52.5181 44.2255 56.0029 42.5769 59.0875L42.5752 59.0902C40.9304 62.1197 38.6757 64.5311 35.8152 66.3151C32.9868 68.1086 29.75 69 26.1222 69C23.3358 69 20.7314 68.5938 18.3138 67.7767C15.901 66.9613 13.96 65.8468 12.5196 64.4151L12.3579 64.2543V20.1331C12.3579 19.6907 12.2556 19.4612 12.1483 19.3438C12.05 19.2364 11.8686 19.137 11.4971 19.137H7.99497L7.11095 16.5972L7.38371 16.354C8.7927 15.0983 10.3942 14.0615 12.1849 13.2436L12.1898 13.2415C14.019 12.428 15.6534 12 17.0783 12C17.868 12 18.5555 12.2575 19.0937 12.7925C19.632 13.3275 19.8915 14.0108 19.8915 14.7959V61.9782Z" fill="#F8FCFB"/>
<defs>
<linearGradient id="paint0_linear_2188_555" x1="40" y1="0" x2="40" y2="80" gradientUnits="userSpaceOnUse">
<stop stop-color="#9BE0CE"/>
<stop offset="1" stop-color="#D4E6AB"/>
</linearGradient>
</defs>
</svg>
